<svg width="24" height="24" viewBox="0 0 24 24" fill="none" xmlns="http://www.w3.org/2000/svg">
<path d="M20.7766 10.4176C20.658 10.4176 20.5502 10.4176 20.4425 10.4176C18.001 10.4176 15.5541 10.4176 13.1126 10.4176C12.5305 10.4176 12.1586 10.136 12.0346 9.60101C11.8945 8.99841 12.2826 8.40708 12.87 8.33387C12.9832 8.31697 13.1018 8.32261 13.2204 8.32261C15.7643 8.32261 18.3028 8.32261 20.8467 8.32261C20.9545 8.32261 21.0569 8.32261 21.1808 8.32261C21.3803 7.2751 21.5743 6.25013 21.7737 5.1801C21.6443 5.1801 21.5419 5.1801 21.4395 5.1801C17.9794 5.1801 14.5246 5.1801 11.0645 5.1801C10.2992 5.1801 9.82489 4.52682 10.0512 3.80595C10.1698 3.423 10.5201 3.13015 10.9082 3.10199C10.9729 3.09636 11.0322 3.09636 11.0968 3.09636C15.0205 3.09636 18.9441 3.09636 22.8732 3.09636C23.5577 3.09636 24.0212 3.53563 23.9996 4.16639C23.9888 4.39165 23.9403 4.61129 23.8972 4.83093C23.272 8.10297 22.6414 11.375 22.0108 14.647C21.8815 15.3285 21.515 15.6439 20.8413 15.6439C16.9608 15.6439 13.0802 15.6439 9.19969 15.6439C8.46131 15.6439 8.13793 15.3792 7.96007 14.6301C7.07078 10.9076 6.18149 7.18499 5.30837 3.46242C5.23831 3.16957 5.13591 3.08509 4.85025 3.09072C3.59447 3.10762 2.3333 3.10199 1.07751 3.09636C0.511601 3.09636 0.128937 2.78098 0.0211447 2.2516C-0.0974272 1.6659 0.296016 1.0802 0.867317 1.01261C1.04517 0.990088 1.22842 1.00135 1.40628 1.00135C2.86148 1.00135 4.31668 1.00135 5.77188 1.00135C6.53721 1.00135 6.83903 1.24915 7.02767 2.02633C7.91157 5.73764 8.80086 9.44895 9.67937 13.1659C9.74943 13.4587 9.84644 13.5489 10.1375 13.5432C13.382 13.532 16.6212 13.532 19.8658 13.5432C20.1137 13.5432 20.1999 13.47 20.243 13.2166C20.4047 12.293 20.5934 11.3694 20.7766 10.4176Z" fill="white"/>
<path d="M18.9982 17.7262C20.6474 17.7262 22.0164 19.1172 22.0056 20.8518C21.9949 22.806 20.4965 23.9943 19.0198 23.9943C17.349 23.9999 15.9962 22.592 15.9962 20.8574C15.9962 19.1397 17.3436 17.7318 18.9982 17.7262ZM18.0065 20.863C18.0065 21.4544 18.4269 21.8937 18.9874 21.8993C19.548 21.9049 19.9953 21.4318 19.9899 20.8461C19.9845 20.283 19.5264 19.8155 18.9874 19.8212C18.4377 19.8268 18.0065 20.283 18.0065 20.863Z" fill="white"/>
<path d="M12.9888 20.8574C12.9942 22.5863 11.6576 23.9943 10.0083 23.9999C8.34293 24.0055 6.99013 22.5976 6.99013 20.863C6.99552 19.1397 8.33754 17.7374 9.99216 17.7318C11.6414 17.7262 12.9834 19.1228 12.9888 20.8574ZM9.95982 21.8993C10.5257 21.9162 10.9785 21.4656 10.9892 20.8743C11 20.3224 10.5635 19.8381 10.0407 19.8212C9.48553 19.8043 9.01664 20.2548 8.98969 20.8349C8.96813 21.3924 9.41547 21.888 9.95982 21.8993Z" fill="white"/>
</svg>
