<svg width="26" height="26" viewBox="0 0 26 26" fill="none" xmlns="http://www.w3.org/2000/svg">
<circle opacity="0.3" cx="13" cy="13" r="13" fill="white"/>
<path d="M7.00616 16.2579C7.01009 16.2539 7.01402 16.2539 7.01795 16.25C7.32844 16.0889 7.71362 16.1832 7.91013 16.474C8.94773 17.9833 10.3941 18.8833 12.2924 19.0445C14.065 19.1978 15.6253 18.62 16.883 17.3662C19.253 15.0002 19.139 11.2271 16.7769 9.00646C15.3895 7.70159 13.7113 7.17886 11.8169 7.49329C10.1308 7.77234 8.84554 8.64094 7.91406 10.0048C7.71755 10.2956 7.33238 10.3899 7.02188 10.2249L7.00616 10.217C6.64457 10.0283 6.52273 9.56456 6.74676 9.22262C8.21276 6.99021 11.0387 5.53992 14.1475 6.1334C17.5355 6.7819 19.9723 9.74142 19.9998 13.1962C20.0273 16.6037 17.6494 19.579 14.3047 20.3061C11.2037 20.9821 8.26386 19.5475 6.75069 17.2522C6.52273 16.9103 6.64457 16.4465 7.00616 16.2579Z" fill="white"/>
<path d="M6.68387 12.5202H13.161C13.2475 12.5202 13.2907 12.414 13.2318 12.3551C13.2278 12.3512 13.22 12.3433 13.216 12.3394C12.9173 12.0407 12.3907 11.514 12.0055 11.1328C11.7422 10.8694 11.7383 10.441 12.0016 10.1777L12.0094 10.1698C12.2767 9.89864 12.7169 9.89471 12.9881 10.1659C13.6602 10.8301 14.855 12.0131 15.5074 12.6695C15.8887 13.0507 15.8965 13.4202 15.5231 13.7975C14.8786 14.4499 13.7427 15.5819 13.0746 16.2422C12.7837 16.533 12.3121 16.5291 12.0212 16.2422C11.7618 15.9867 11.7618 15.5661 12.0212 15.3107C12.375 14.9609 12.8623 14.4814 13.2396 14.108C13.3025 14.049 13.2593 13.9429 13.1728 13.939C13.1571 13.939 13.1414 13.939 13.1296 13.939C11.3845 13.939 8.16953 13.939 6.72711 13.939C6.33015 13.939 6 13.6128 6 13.208C6 12.8306 6.30656 12.5202 6.68387 12.5202Z" fill="white"/>
</svg>
