<svg width="19" height="19" viewBox="0 0 19 19" fill="none" xmlns="http://www.w3.org/2000/svg">
<path d="M17.9953 16.2547C17.9953 16.6482 18.002 17.0383 17.992 17.4317C17.9853 17.7411 17.7823 17.9529 17.4761 17.9899C17.1832 18.0269 16.917 17.852 16.8405 17.5696C16.8205 17.4889 16.8205 17.4048 16.8205 17.3207C16.8205 16.6717 16.8138 16.0194 16.8238 15.3703C16.8271 15.1181 16.7373 14.9567 16.521 14.8222C14.9335 13.8437 13.2195 13.2148 11.3791 12.9559C9.69176 12.7171 8.01441 12.7945 6.35704 13.1947C4.94926 13.5343 3.63135 14.0959 2.40662 14.876C2.2502 14.9769 2.18697 15.1148 2.18697 15.2964C2.19029 15.979 2.19029 16.665 2.18697 17.3476C2.18697 17.6873 2.02722 17.9092 1.74766 17.9798C1.35828 18.0773 1.01216 17.8117 1.0055 17.3913C0.995517 16.9307 1.00217 16.4733 1.00217 16.0126C1.00217 15.7167 1.00217 15.4174 1.01549 15.1215C1.03878 14.5902 1.29504 14.1799 1.73102 13.8975C3.37176 12.8483 5.14229 12.1488 7.06259 11.8294C8.25071 11.631 9.44548 11.5805 10.6436 11.6747C12.9732 11.8563 15.1298 12.5826 17.1267 13.81C17.566 14.0791 17.8921 14.4288 17.9753 14.9534C18.0119 15.1955 17.9953 15.4443 17.9986 15.6898C18.0019 15.8748 17.9986 16.0631 17.9953 16.2547Z" fill="white"/>
<path d="M12.8601 5.36495C12.8601 5.81892 12.8634 6.27289 12.8601 6.72685C12.8468 8.09212 12.0547 9.20519 10.7734 9.63226C10.5437 9.7096 10.2975 9.7634 10.0578 9.77349C9.62853 9.7903 9.18922 9.79703 8.76323 9.75331C7.85134 9.65243 7.14579 9.18165 6.63327 8.41831C6.29047 7.90717 6.14071 7.33551 6.14071 6.72013C6.14071 5.82228 6.14071 4.92779 6.14071 4.02994C6.14404 2.79918 6.85625 1.71302 7.98113 1.23551C8.3206 1.09092 8.67337 1.00348 9.04612 1.00685C9.57528 1.01021 10.1111 0.956406 10.6336 1.10437C11.5888 1.37675 12.251 1.97195 12.6404 2.88998C12.8035 3.27669 12.8634 3.68694 12.8634 4.10392C12.8634 4.52426 12.8601 4.94461 12.8601 5.36495ZM11.6653 3.76429C11.622 3.08502 10.9964 2.36539 10.3308 2.26115C9.89145 2.19389 9.4355 2.17708 8.98954 2.20398C8.09096 2.25778 7.35546 3.0144 7.33216 3.91897C7.30554 4.88744 7.30886 5.85927 7.33549 6.82774C7.35878 7.6886 7.95784 8.39813 8.79651 8.55282C9.17924 8.62344 9.57861 8.60326 9.97132 8.60326C10.7701 8.60326 11.5921 7.87691 11.6586 7.06985C11.7052 6.53182 11.7019 4.3225 11.6653 3.76429Z" fill="white"/>
<path d="M17.9953 16.2547C17.9953 16.6482 18.002 17.0383 17.992 17.4317C17.9853 17.7411 17.7823 17.9529 17.4761 17.9899C17.1832 18.0269 16.917 17.852 16.8405 17.5696C16.8205 17.4889 16.8205 17.4048 16.8205 17.3207C16.8205 16.6717 16.8138 16.0194 16.8238 15.3703C16.8271 15.1181 16.7373 14.9567 16.521 14.8222C14.9335 13.8437 13.2195 13.2148 11.3791 12.9559C9.69176 12.7171 8.01441 12.7945 6.35704 13.1947C4.94926 13.5343 3.63135 14.0959 2.40662 14.876C2.2502 14.9769 2.18697 15.1148 2.18697 15.2964C2.19029 15.979 2.19029 16.665 2.18697 17.3476C2.18697 17.6873 2.02722 17.9092 1.74766 17.9798C1.35828 18.0773 1.01216 17.8117 1.0055 17.3913C0.995517 16.9307 1.00217 16.4733 1.00217 16.0126C1.00217 15.7167 1.00217 15.4174 1.01549 15.1215C1.03878 14.5902 1.29504 14.1799 1.73102 13.8975C3.37176 12.8483 5.14229 12.1488 7.06259 11.8294C8.25071 11.631 9.44548 11.5805 10.6436 11.6747C12.9732 11.8563 15.1298 12.5826 17.1267 13.81C17.566 14.0791 17.8921 14.4288 17.9753 14.9534C18.0119 15.1955 17.9953 15.4443 17.9986 15.6898C18.0019 15.8748 17.9986 16.0631 17.9953 16.2547Z" stroke="white"/>
<path d="M12.8601 5.36495C12.8601 5.81892 12.8634 6.27289 12.8601 6.72685C12.8468 8.09212 12.0547 9.20519 10.7734 9.63226C10.5437 9.7096 10.2975 9.7634 10.0578 9.77349C9.62853 9.7903 9.18922 9.79703 8.76323 9.75331C7.85134 9.65243 7.14579 9.18165 6.63327 8.41831C6.29047 7.90717 6.14071 7.33551 6.14071 6.72013C6.14071 5.82228 6.14071 4.92779 6.14071 4.02994C6.14404 2.79918 6.85625 1.71302 7.98113 1.23551C8.3206 1.09092 8.67337 1.00348 9.04612 1.00685C9.57528 1.01021 10.1111 0.956406 10.6336 1.10437C11.5888 1.37675 12.251 1.97195 12.6404 2.88998C12.8035 3.27669 12.8634 3.68694 12.8634 4.10392C12.8634 4.52426 12.8601 4.94461 12.8601 5.36495ZM11.6653 3.76429C11.622 3.08502 10.9964 2.36539 10.3308 2.26115C9.89145 2.19389 9.4355 2.17708 8.98954 2.20398C8.09096 2.25778 7.35546 3.0144 7.33216 3.91897C7.30554 4.88744 7.30886 5.85927 7.33549 6.82774C7.35878 7.6886 7.95784 8.39813 8.79651 8.55282C9.17924 8.62344 9.57861 8.60326 9.97132 8.60326C10.7701 8.60326 11.5921 7.87691 11.6586 7.06985C11.7052 6.53182 11.7019 4.3225 11.6653 3.76429Z" stroke="white"/>
</svg>
