<?xml version="1.0" encoding="utf-8"?>
<!-- Generator: Adobe Illustrator 22.1.0, SVG Export Plug-In . SVG Version: 6.00 Build 0)  -->
<svg version="1.1" id="Layer_1" xmlns="http://www.w3.org/2000/svg" xmlns:xlink="http://www.w3.org/1999/xlink" x="0px" y="0px"
	 viewBox="0 0 340 290" style="enable-background:new 0 0 340 290;" xml:space="preserve">
<style type="text/css">
	.st0{fill:#F40050;}
	.st1{fill:#FFFFFF;}
	.st2{fill:#213A96;}
</style>
<title>logo</title>
<path class="st0" d="M169,0h-1.3c-33.3,0.1-60.3,27.1-60.4,60.6v168.9c0.1,33.4,27.1,60.5,60.4,60.6h1.3
	c33.3-0.1,60.3-27.2,60.4-60.6V60.6C229.4,27.2,202.4,0.1,169,0z M169,270.7h-1.3c-22.7,0-41.1-18.5-41.1-41.2V145h83.6v84.4
	C210.2,252.2,191.8,270.7,169,270.7z"/>
<path class="st1" d="M174.8,65.1V41.3l14.7,14.8c2.5,2.5,6.6,2.4,9.1-0.1c2.4-2.5,2.4-6.5,0-9l-25.7-25.8c-2.5-2.5-6.6-2.5-9.1,0
	L138.1,47c-2.5,2.5-2.4,6.6,0.1,9.1c2.5,2.4,6.5,2.4,9,0L162,41.3v23.8c-17.4,3.6-28.6,20.6-25.1,38c3.6,17.4,20.5,28.7,37.9,25.1
	s28.6-20.6,25.1-38C197.3,77.6,187.4,67.7,174.8,65.1L174.8,65.1z M168.4,116c-10.7,0-19.3-8.7-19.3-19.3s8.6-19.3,19.3-19.3
	c10.7,0,19.3,8.7,19.3,19.3c0,0,0,0,0,0C187.7,107.3,179,116,168.4,116L168.4,116z"/>
<path class="st2" d="M267.7,203.6l63.7,63.8c13.6-22.8,9.1-54.7,0-63.8C322.3,194.4,290.4,189.9,267.7,203.6z"/>
<path class="st2" d="M322.3,276.5l-63.6-63.8c-13.6,22.8-9.1,54.7,0,63.8C267.7,285.7,299.5,290.2,322.3,276.5z"/>
<path class="st2" d="M17.7,203.6l63.7,63.8c13.6-22.8,9.1-54.7,0-63.8S40.4,189.9,17.7,203.6z"/>
<path class="st2" d="M72.2,276.5L8.6,212.7c-13.6,22.8-9.1,54.7,0,63.8C17.7,285.7,49.5,290.2,72.2,276.5z"/>
</svg>
