<svg width="20" height="14" viewBox="0 0 20 14" fill="none" xmlns="http://www.w3.org/2000/svg">
<path d="M9.99202 13.8021C7.39988 13.8021 4.81174 13.8021 2.21961 13.8021C1.13788 13.8021 0.316566 13.165 0.0641628 12.1274C0.0160861 11.9351 0.00807327 11.7308 0.00807327 11.5304C0.00406687 8.44551 0.0160861 5.36058 6.04724e-05 2.27565C-0.00795232 1.08976 0.781308 0.220371 1.78291 0.0360763C1.93916 0.00803147 2.10342 0.00803147 2.25967 0.00803147C7.41991 0.00803147 12.5842 0.0160443 17.7444 1.8673e-05C18.774 -0.00398773 19.6675 0.637036 19.9239 1.60258C19.98 1.81091 19.996 2.03928 19.996 2.25562C20 5.35257 20 8.45352 20 11.5505C20 12.6442 19.4071 13.4455 18.3774 13.7299C18.1691 13.786 17.9407 13.7981 17.7244 13.7981C15.1483 13.8061 12.5681 13.8021 9.99202 13.8021ZM2.38387 1.45033C2.37986 1.46636 2.37185 1.47838 2.36784 1.49441C2.39589 1.51444 2.42393 1.53447 2.44797 1.5545C4.81976 3.66988 7.19155 5.78125 9.56333 7.89663C9.63945 7.96474 9.73561 8.02483 9.83176 8.0649C10.1322 8.18509 10.3406 8.00881 10.5449 7.82852C12.8806 5.74519 15.2164 3.65786 17.5521 1.57453C17.5881 1.54248 17.6162 1.50242 17.6643 1.45033C12.5481 1.45033 7.46398 1.45033 2.38387 1.45033ZM2.72842 12.3758C7.59619 12.3758 12.4079 12.3758 17.2716 12.3758C15.7011 10.8614 14.1627 9.379 12.6162 7.88862C12.2236 8.24118 11.839 8.58573 11.4624 8.93028C11.0457 9.31089 10.5569 9.51521 9.99202 9.5072C9.48721 9.5032 9.03449 9.33893 8.65388 9.0064C8.23722 8.64182 7.82456 8.27724 7.39587 7.90064C5.8454 9.38701 4.30694 10.8614 2.72842 12.3758ZM1.44637 11.6226C3.08899 10.0441 4.69957 8.49358 6.32616 6.93109C4.69957 5.48077 3.08499 4.03847 1.44637 2.57613C1.44637 5.60898 1.44637 8.59374 1.44637 11.6226ZM18.5537 11.6186C18.5537 8.58974 18.5537 5.60096 18.5537 2.58014C16.9191 4.04247 15.3085 5.48077 13.6899 6.92308C15.3085 8.48958 16.9191 10.0441 18.5537 11.6186Z" fill="white"/>
</svg>
