<svg width="20" height="20" viewBox="0 0 20 20" fill="none" xmlns="http://www.w3.org/2000/svg">
<path d="M18.5337 2.22715C17.0028 0.426154 15.0027 -0.294245 12.6567 0.10861C10.9505 0.402457 9.61397 1.3077 8.67082 2.75323C7.72293 4.20825 7.47647 5.80545 7.84141 7.49744C7.87459 7.65384 7.85563 7.76285 7.73715 7.87186C7.50491 8.08987 5.09252 10.5023 4.7181 10.8862C3.30574 12.2938 1.89812 13.7061 0.485761 15.1185C0.291443 15.3128 0.201393 15.5403 0.187174 15.8152C0.130301 16.8911 0.0639483 17.9622 0.00233523 19.0333C-0.0166226 19.3461 0.0781667 19.6352 0.348316 19.7916C0.542634 19.9006 0.789087 19.9765 1.01184 19.967C2.07822 19.9243 3.13986 19.8532 4.20624 19.7869C4.77024 19.7537 5.07357 19.4219 5.0783 18.8437C5.0783 18.365 5.0783 17.8816 5.0783 17.384C5.56647 17.3887 6.04042 17.3934 6.51436 17.3934C7.11154 17.3887 7.43382 17.0806 7.47647 16.4882C7.51913 15.8958 7.56652 15.3081 7.60918 14.6967C8.26323 14.6066 8.89358 14.5119 9.52866 14.4313C9.85095 14.3934 10.1069 14.2654 10.3344 14.0284C10.8984 13.4455 11.4861 12.8767 12.0548 12.2985C12.1828 12.1706 12.287 12.1326 12.4624 12.1895C13.543 12.5118 14.6331 12.4502 15.6805 12.09C17.8749 11.3364 19.292 9.81978 19.8228 7.54957C20.2873 5.57322 19.8323 3.758 18.5337 2.22715ZM12.4482 10.4312C11.9742 10.2558 11.5998 10.3506 11.2491 10.7108C10.6282 11.3554 9.99313 11.981 9.3533 12.6018C9.26325 12.6872 9.13055 12.7535 9.01206 12.7725C8.31062 12.8862 7.60444 12.9857 6.903 13.0853C6.22052 13.1848 6.01198 13.4123 5.96458 14.1043C5.92667 14.6303 5.87927 15.1517 5.83662 15.692C5.34371 15.692 4.86977 15.692 4.39582 15.6872C3.72282 15.6872 3.39105 16.0095 3.38158 16.6825C3.37684 17.1565 3.38158 17.6304 3.38158 18.1281C2.8318 18.1565 2.29624 18.1897 1.7512 18.2181C1.78437 17.5735 1.82229 16.9669 1.85073 16.3602C1.85547 16.1849 1.91708 16.0522 2.04505 15.929C3.41949 14.564 4.78446 13.1943 6.15416 11.8293C6.16838 11.8151 6.1826 11.7961 6.20156 11.7819C7.01675 10.9667 9.02154 8.9572 9.33435 8.65387C9.61871 8.37424 9.69929 8.0567 9.6045 7.66332C9.50023 7.21307 9.41492 6.7486 9.38648 6.28888C9.23956 3.68691 11.3249 1.58258 13.9269 1.69159C16.3488 1.79112 18.1924 3.63477 18.2825 6.0756C18.3962 9.23682 15.2634 11.4644 12.4482 10.4312Z" fill="white"/>
<path d="M12.6188 4.17033C11.7515 5.04713 11.7467 6.47371 12.6188 7.35052C13.5051 8.24154 14.9127 8.24154 15.8037 7.35052C16.69 6.46898 16.6947 5.07557 15.8132 4.17981C14.9459 3.30301 13.4861 3.29353 12.6188 4.17033ZM14.6189 6.16091C14.4056 6.37892 14.0217 6.38366 13.8084 6.16565C13.6046 5.96185 13.6046 5.58269 13.8084 5.36942C14.0169 5.1514 14.3771 5.14666 14.5952 5.35046C14.8274 5.57796 14.8369 5.93815 14.6189 6.16091Z" fill="white"/>
</svg>
