<svg width="30" height="30" viewBox="0 0 30 30" fill="none" xmlns="http://www.w3.org/2000/svg">
<path d="M0 15C0 23.2843 6.71573 30 15 30C23.2843 30 30 23.2843 30 15C30 6.71573 23.2843 0 15 0C6.71573 0 0 6.71573 0 15Z" fill="#213A96"/>
<path fill-rule="evenodd" clip-rule="evenodd" d="M16.3431 7.92888L22.7071 14.2928C23.0976 14.6834 23.0976 15.3165 22.7071 15.7071L16.3431 22.071C15.9526 22.4615 15.3195 22.4615 14.9289 22.071C14.5384 21.6805 14.5384 21.0473 14.9289 20.6568L19.5858 15.9999H9V13.9999H19.5858L14.9289 9.34309C14.5384 8.95257 14.5384 8.3194 14.9289 7.92888C15.3195 7.53836 15.9526 7.53836 16.3431 7.92888Z" fill="white"/>
</svg>
