<svg width="34" height="34" viewBox="0 0 34 34" fill="none" xmlns="http://www.w3.org/2000/svg">
<path d="M22.9212 30.2391C24.433 30.1691 25.9638 30.3854 27.4629 29.9847C30.4421 29.1769 32.5891 26.2639 32.4557 23.1918C32.4557 23.16 32.443 23.1345 32.4303 23.0646C32.2842 23.1664 32.1571 23.2745 32.0174 23.3444C31.5156 23.5861 31.0138 23.8405 30.4929 24.0377C30.2896 24.114 30.1943 24.1649 30.1689 24.4003C30.0482 25.6914 29.0764 26.6773 27.8441 26.7918C26.5355 26.919 25.3921 26.1875 25.0301 24.9663C24.9412 24.6674 24.9157 24.343 24.9157 24.025C24.9094 21.0801 24.9094 18.1289 24.9094 15.1841C24.9094 13.2251 26.6499 12.0102 28.4983 12.6654C28.5364 12.6781 28.5809 12.6908 28.6635 12.7099C28.5682 10.9035 28.1109 9.2244 27.2597 7.64703C26.4021 6.06329 25.2715 4.7149 23.7787 3.70996C19.6054 0.898669 15.2605 0.682416 10.9284 3.22657C7.37758 5.31277 5.57993 8.56928 5.24327 12.7226C5.9547 12.4237 6.60897 12.3728 7.26324 12.6081C8.38756 13.0025 9.03548 13.9502 9.04183 15.1968C9.04818 17.3911 9.04183 19.5855 9.04183 21.7798C9.04183 22.6066 9.05453 23.4335 9.03547 24.2603C9.00371 25.5515 8.03184 26.6264 6.77413 26.779C5.42113 26.9444 4.23328 26.1748 3.87121 24.9027C3.85216 24.8391 3.8204 24.7755 3.82675 24.7183C3.89027 24.1777 3.55361 24.0441 3.10896 23.9232C1.4193 23.4526 0.129822 21.7098 0.00913186 19.948C-0.130614 17.7982 1.34307 15.6357 3.77593 15.1841C3.77593 15.0569 3.77593 14.9233 3.77593 14.7897C3.78228 13.435 3.71876 12.0739 4.00461 10.7382C4.8812 6.61029 7.1489 3.51278 10.8585 1.52835C16.4293 -1.45467 23.4039 0.0463781 27.3105 5.00747C29.2415 7.46258 30.1562 10.2675 30.1943 13.3777C30.2007 13.9692 30.1943 14.5608 30.1943 15.1332C30.6263 15.2922 31.0455 15.4003 31.4267 15.5911C32.9893 16.3862 33.8595 17.6837 33.9357 19.4328C33.9993 20.9339 34.0437 22.4476 33.9294 23.9487C33.6753 27.2815 31.9475 29.6412 28.9303 31.0469C27.8187 31.5684 26.6308 31.7401 25.4112 31.7465C24.6807 31.7465 23.9502 31.7529 23.2197 31.7401C22.9974 31.7338 22.8958 31.7974 22.8132 32.02C22.3558 33.2475 21.1871 34.0935 19.7642 33.9917C18.5255 33.9027 17.4393 33.0122 17.0963 31.7529C16.6834 30.2136 17.5409 28.6236 19.0464 28.1274C20.5836 27.625 22.2034 28.3882 22.7878 29.8893C22.8259 29.9974 22.8704 30.1055 22.9212 30.2391ZM28.6762 19.6427C28.6762 19.2293 28.6762 18.8159 28.6762 18.4024C28.6762 17.3021 28.6825 16.1954 28.6698 15.095C28.6635 14.5162 28.276 14.0774 27.7551 14.001C27.1707 13.9184 26.6562 14.1982 26.4911 14.7198C26.4275 14.9297 26.4148 15.1586 26.4148 15.3749C26.4085 18.218 26.4085 21.0547 26.4148 23.8978C26.4148 24.0377 26.4212 24.1713 26.4339 24.3112C26.5292 25.0681 27.2914 25.5133 27.9902 25.208C28.4729 24.9981 28.6825 24.6102 28.6825 24.095C28.6762 22.6066 28.6762 21.1247 28.6762 19.6427ZM5.29408 19.6427C5.28773 19.6427 5.28773 19.6427 5.29408 19.6427C5.29408 19.9416 5.29408 20.2342 5.29408 20.5332C5.29408 21.7416 5.28773 22.9501 5.30044 24.1586C5.31314 25.0808 6.2342 25.6024 7.00915 25.1381C7.44745 24.8773 7.56179 24.4511 7.56179 23.9614C7.55543 21.0865 7.56179 18.218 7.55543 15.3431C7.55543 15.1968 7.57449 15.0314 7.51732 14.9042C7.40934 14.6625 7.28865 14.3954 7.10443 14.2173C6.77413 13.912 6.34218 13.9056 5.942 14.0837C5.51641 14.2682 5.30044 14.6244 5.29408 15.095C5.28773 16.6088 5.29408 18.1226 5.29408 19.6427ZM3.75687 22.5176C3.75687 20.584 3.75687 18.6759 3.75687 16.7614C2.54997 16.965 1.52093 18.2689 1.50823 19.5727C1.50188 20.972 2.48645 22.2695 3.75687 22.5176ZM30.2134 16.7678C30.2134 18.7014 30.2134 20.6095 30.2134 22.5176C31.4965 22.2123 32.4684 20.9593 32.4557 19.6554C32.443 18.2816 31.4711 17.0349 30.2134 16.7678ZM18.5001 30.9833C18.5128 31.8355 19.1798 32.5034 20.0119 32.4907C20.8504 32.4779 21.5237 31.7847 21.5047 30.9578C21.4856 30.1182 20.8059 29.4504 19.9738 29.4631C19.1544 29.4758 18.4874 30.1628 18.5001 30.9833Z" fill="#F40050"/>
<path d="M16.9883 10.9608C18.0809 10.9608 19.1671 10.9608 20.2596 10.9608C21.6698 10.9671 22.6353 11.9212 22.6417 13.3332C22.648 14.7834 22.648 16.2335 22.6417 17.6901C22.6353 19.0639 21.6698 20.018 20.2978 20.0243C19.9293 20.0243 19.5546 20.037 19.1861 20.018C18.9765 20.0052 18.8622 20.0879 18.7542 20.2597C18.4175 20.7876 18.0682 21.3028 17.7188 21.8179C17.2869 22.454 16.6961 22.454 16.2705 21.8243C15.9212 21.3091 15.5654 20.7939 15.2351 20.266C15.1208 20.0816 14.9874 20.0116 14.7714 20.0243C14.3903 20.037 14.0092 20.0307 13.628 20.0307C12.3195 20.0307 11.3476 19.0639 11.3413 17.7409C11.3349 16.259 11.3413 14.777 11.3413 13.2887C11.3413 11.953 12.3005 10.9799 13.6344 10.9671C14.746 10.9544 15.8703 10.9608 16.9883 10.9608ZM16.982 20.1833C17.2487 19.7699 17.5028 19.4201 17.7188 19.0512C17.9411 18.6759 18.2333 18.4978 18.678 18.5169C19.2179 18.5424 19.7578 18.5233 20.2978 18.5233C20.8186 18.5233 21.1235 18.2434 21.1235 17.7282C21.1299 16.2463 21.1299 14.7579 21.1235 13.276C21.1235 12.7735 20.8313 12.4809 20.3295 12.4809C18.0936 12.4746 15.864 12.4746 13.628 12.4809C13.1262 12.4809 12.834 12.7735 12.834 13.2696C12.8277 14.7516 12.8277 16.2399 12.834 17.7219C12.834 18.2371 13.1326 18.5233 13.6535 18.5233C14.2251 18.5233 14.7968 18.536 15.3685 18.5169C15.7369 18.5042 15.991 18.6568 16.1816 18.9621C16.4357 19.3501 16.6961 19.7381 16.982 20.1833Z" fill="#F40050"/>
<path d="M16.9756 16.2463C16.4865 16.2463 16.0037 16.2526 15.5146 16.2463C15.0573 16.2399 14.7397 15.9346 14.7206 15.5085C14.7079 15.0887 15.0192 14.7452 15.4765 14.7325C16.4738 14.7134 17.4647 14.7198 18.462 14.7325C18.9321 14.7389 19.256 15.0887 19.2433 15.5212C19.2306 15.941 18.9003 16.2399 18.4366 16.2463C17.9475 16.2526 17.4647 16.2463 16.9756 16.2463Z" fill="#F40050"/>
</svg>
